# xmcd
#
# Track frame offsets:
#	150
#	20740
#	41023
#	63108
#	83108
#	102693
#	125545
#	151253
#	172248
#	191073
#	210350
#
# Disc length: 3076 seconds
#
# Revision: 3
# Processed by: cddbd v1.5.2PL0 Copyright (c) Steve Scherf et al.
# Submitted via: audiograbber 1.83.01
#
DISCID=970c020b
DTITLE=Thirty Eight Special - Rock and Roll Strategy
DYEAR=1988
DGENRE=Southern Rock
TTITLE0=Rock and Roll Strategy
TTITLE1=What's It To Ya?
TTITLE2=Little Sheba
TTITLE3=Comin' Down Tonight
TTITLE4=Midnight Magic
TTITLE5=Second Chance
TTITLE6=Hot 'Lanta
TTITLE7=Never Be Lonely
TTITLE8=Chattahoochee
TTITLE9=Innocent Eyes
TTITLE10=Love Strikes
EXTD=
EXTT0=
EXTT1=
EXTT2=
EXTT3=
EXTT4=
EXTT5=
EXTT6=
EXTT7=
EXTT8=
EXTT9=
EXTT10=
PLAYORDER=
